General
Complete name                    : 11.godini.Planeta.2012.HDTV.RiCKY_new.mkv
Format                           : Matroska
File size                        : 12.1 GiB
Duration                         : 3h 8mn
Overall bit rate                 : 9 208 Kbps
Encoded date                     : UTC 2012-12-04 21:36:35
Writing library                  : Haali DirectShow Matroska Muxer 1.11.96.14

Video
ID                               : 1
Format                           : AVC
Format/Info                      : Advanced Video Codec
Format profile                   : Main@L4.0
Format settings, CABAC           : Yes
Format settings, ReFrames        : 4 frames
Format settings, GOP             : M=1, N=24
Muxing mode                      : Container profile=Unknown@4.0
Codec ID                         : V_MPEG4/ISO/AVC
Duration                         : 3h 8mn
Bit rate                         : 8 769 Kbps
Width                            : 1 920 pixels
Height                           : 1 080 pixels
Display aspect ratio             : 16:9
Frame rate                       : 25.000 fps
Standard                         : Component
Color space                      : YUV
Chroma subsampling               : 4:2:0
Bit depth                        : 8 bits
Scan type                        : Interlaced
Scan order                       : Top Field First
Bits/(Pixel*Frame)               : 0.169
Stream size                      : 11.5 GiB (95%)
Title                            : PID 1001 Video
Color primaries                  : BT.709-5, BT.1361, IEC 61966-2-4, SMPTE RP177
Transfer characteristics         : BT.709-5, BT.1361
Matrix coefficients              : BT.709-5, BT.1361, IEC 61966-2-4 709, SMPTE RP177

Audio
ID                               : 2
Format                           : MPEG Audio
Format version                   : Version 1
Format profile                   : Layer 2
Codec ID                         : A_MPEG/L2
Codec ID/Hint                    : MP2
Duration                         : 3h 8mn
Bit rate mode                    : Constant
Bit rate                         : 256 Kbps
Channel(s)                       : 2 channels
Sampling rate                    : 48.0 KHz
Video delay                      : 10ms
Stream size                      : 345 MiB (3%)
Title                            : MPEG1
